<svg width="127" height="63" viewBox="0 0 100 70" xmlns="http://www.w3.org/2000/svg">
<path d="M9.75 42.4648H3.98438V50H1.83984V32.9375H10.7227V34.7891H3.98438V40.625H9.75V42.4648ZM15.6094 50H13.4648V32.9375H15.6094V50ZM30.5156 50H28.3594L21.5273 36.8516V50H19.3711V32.9375H21.5273L28.3828 46.1445V32.9375H30.5156V50ZM42.3984 45.5469H36.6328L35.3086 50H33.1055L38.6016 32.9375H40.4414L45.9492 50H43.7461L42.3984 45.5469ZM37.1953 43.6953H41.8477L39.5156 35.9375L37.1953 43.6953ZM59.4141 50H57.2578L50.4258 36.8516V50H48.2695V32.9375H50.4258L57.2812 46.1445V32.9375H59.4141V50Z" fill="#DFDDDD"/>
<path d="M104.797 45.5469H99.0312L97.707 50H95.5039L101 32.9375H102.84L108.348 50H106.145L104.797 45.5469ZM99.5938 43.6953H104.246L101.914 35.9375L99.5938 43.6953Z" fill="#DFDDDD"/>
<path d="M100.85 54.049C100.659 54.9576 100.118 55.4215 99.2274 55.4407C99.036 55.1737 98.7152 54.9826 98.2651 54.8675C97.8191 54.7326 97.4282 54.63 97.0924 54.5595C96.9344 54.5263 96.8055 54.5508 96.7058 54.633C96.606 54.7151 96.5068 54.7459 96.408 54.7251C95.9142 54.6215 95.4246 54.4981 94.9391 54.3549C94.4733 54.2159 93.9936 54.0946 93.4998 53.9909C92.9072 53.8665 92.2825 53.7972 91.6255 53.7831C90.9884 53.773 90.4624 53.7245 90.0476 53.6374C89.9291 53.6125 89.8365 53.5622 89.77 53.4863C89.7232 53.4146 89.6644 53.3507 89.5937 53.2947C89.4035 53.3166 89.2169 53.3702 89.034 53.4556C88.8511 53.5409 88.6609 53.5628 88.4634 53.5214C88.3844 53.5048 88.3116 53.4586 88.245 53.3827C88.1785 53.3069 88.1197 53.243 88.0688 53.1911C87.9024 53.1974 87.7595 53.2396 87.6401 53.3176C87.5206 53.3956 87.3855 53.4498 87.2348 53.48C87.1131 53.372 86.9831 53.3034 86.8449 53.2744C86.6868 53.2412 86.5107 53.2455 86.3163 53.2872C86.1459 53.3133 85.9733 53.3492 85.7987 53.3951C85.6366 53.3817 85.4666 53.3563 85.2888 53.319C85.135 53.266 84.979 53.223 84.821 53.1898C84.6235 53.1484 84.4239 53.1168 84.2222 53.0951C84.0206 53.0734 83.8304 53.0953 83.6516 53.1609C82.7628 52.9743 81.8652 52.8787 80.9588 52.874C80.0721 52.8735 79.185 52.9244 78.2974 53.0268L76.1755 53.2619C76.0767 53.2411 76.0019 53.2048 75.9509 53.1529C75.9197 53.1051 75.8745 53.075 75.8152 53.0625L75.6671 53.0314C75.3886 53.1792 75.0493 53.2729 74.6491 53.3127C74.2687 53.3565 73.8628 53.3744 73.4314 53.3664C73.0001 53.3583 72.5687 53.3502 72.1373 53.3422C71.7257 53.3383 71.3614 53.3546 71.0444 53.3911C70.8303 53.4287 70.6318 53.4901 70.4489 53.5755C70.2857 53.665 70.0893 53.7165 69.8596 53.7302C69.7567 53.7292 69.658 53.7085 69.5633 53.668C69.4687 53.6275 69.372 53.5969 69.2733 53.5761C69.056 53.5305 68.7769 53.5338 68.436 53.586C68.091 53.6579 67.6965 53.7195 67.2527 53.7707C66.8245 53.8457 66.3708 53.8949 65.8917 53.918C65.4083 53.9609 64.9297 53.9326 64.4556 53.8331C64.1396 53.7667 63.7508 53.6542 63.2892 53.4954C62.8473 53.3408 62.4257 53.1389 62.0243 52.8896C61.623 52.6404 61.3032 52.3464 61.0649 52.0077C60.807 51.6648 60.7257 51.2663 60.821 50.812C60.8874 50.4959 60.9943 50.2812 61.1418 50.1678C61.2852 50.0742 61.3818 49.9089 61.4316 49.6719C61.444 49.6126 61.4486 49.5414 61.4455 49.4583C61.4184 49.3907 61.3893 49.333 61.3581 49.2852C61.8443 48.9336 62.2952 48.554 62.7107 48.1463C63.1304 47.7188 63.5246 47.2654 63.8934 46.786C64.2394 46.6112 64.5719 46.4026 64.8909 46.1602C65.214 45.8981 65.535 45.6458 65.854 45.4034C66.173 45.1611 66.4997 44.9306 66.8343 44.7122C67.1886 44.4978 67.5622 44.3391 67.9551 44.236C68.1077 43.9999 68.3098 43.7743 68.5612 43.5589C68.8584 43.5182 69.1245 43.4297 69.3593 43.2934C69.6139 43.1613 69.8607 43.0172 70.0997 42.8611C70.3428 42.6853 70.5818 42.5292 70.8166 42.3929C71.0712 42.2608 71.3471 42.1744 71.6444 42.1336C71.8407 41.8861 72.0703 41.6766 72.3332 41.5049C72.6002 41.3135 72.8651 41.132 73.128 40.9603L73.9167 40.4453C74.1795 40.2737 74.4268 40.0781 74.6585 39.8586C74.7853 39.844 74.8747 39.8112 74.9266 39.7603C74.9827 39.6895 75.0856 39.6905 75.2353 39.7632L75.3224 39.3484C75.604 39.2838 75.8524 39.1813 76.0675 39.0408C76.3023 38.9045 76.5294 38.7563 76.7486 38.5961C76.9678 38.4359 77.1948 38.2876 77.4297 38.1513C77.6687 37.9953 77.9191 37.8829 78.181 37.8141L78.293 37.2808C78.4988 37.2828 78.6931 37.2411 78.876 37.1557C79.063 37.0506 79.2615 36.9892 79.4715 36.9714C79.5305 36.592 79.6754 36.344 79.9061 36.2274C80.1409 36.0911 80.4194 35.9434 80.7415 35.7842C81.0147 35.3672 81.3544 35.026 81.7606 34.7608L82.9794 33.9649C83.3523 33.4657 83.7465 33.0123 84.1621 32.6046C84.6015 32.1813 84.9978 31.718 85.3509 31.2147C85.5494 31.1533 85.7344 31.058 85.9058 30.9291C86.0772 30.8001 86.2388 30.669 86.3905 30.5359C86.5463 30.383 86.7099 30.242 86.8813 30.113C87.0528 29.9841 87.2398 29.879 87.4425 29.7978L87.4439 29.6434C87.473 29.5052 87.5472 29.397 87.6667 29.319C87.7862 29.241 87.8563 29.1526 87.877 29.0538C87.8853 29.0143 87.878 28.9509 87.8551 28.8636L87.5588 28.8014C87.1045 28.706 86.5905 28.6497 86.0167 28.6323C85.4429 28.615 84.9456 28.6756 84.5247 28.8141L84.3469 28.7768C83.9124 28.6855 83.4654 28.6536 83.006 28.6809C82.5705 28.6925 82.123 28.712 81.6636 28.7393C81.2042 28.7666 80.7489 28.7742 80.2978 28.7619C79.8664 28.7539 79.4376 28.6845 79.0114 28.5538C78.7297 28.6184 78.4324 28.6591 78.1196 28.6759C77.8306 28.6771 77.5588 28.7438 77.3043 28.8759C76.8178 28.8357 76.2539 28.8204 75.6125 28.8301C74.9951 28.8243 74.3657 28.8262 73.7244 28.8359C73.0872 28.8259 72.4698 28.82 71.8721 28.8183C71.2786 28.7968 70.7744 28.7425 70.3596 28.6554C70.0831 28.5974 69.8289 28.4822 69.597 28.3097C69.3849 28.1415 69.2106 27.9399 69.0743 27.7051C68.938 27.4703 68.8376 27.212 68.773 26.9304C68.7281 26.6529 68.7326 26.3857 68.7865 26.1289C68.8487 25.8327 68.9883 25.5114 69.2054 25.1651C69.3727 25.0559 69.5436 24.9784 69.7182 24.9325C69.9167 24.8711 70.0819 24.7717 70.2139 24.6344C70.3833 24.7113 70.5606 24.8 70.7457 24.9008C70.9349 24.9817 71.1283 25.0429 71.3258 25.0844C71.5233 25.1259 71.7094 25.1237 71.884 25.0778C72.0461 25.0913 72.1325 25.1712 72.1429 25.3178C72.1773 25.4487 72.2397 25.5443 72.3302 25.6046C72.7813 25.6168 73.2309 25.5874 73.6788 25.5165C74.1268 25.4455 74.5779 25.4578 75.0322 25.5531C75.2692 25.6029 75.5 25.6823 75.7246 25.7913C76.8773 25.7033 78.0217 25.6548 79.1578 25.6458C80.3137 25.641 81.4606 25.5312 82.5987 25.3164L82.9776 25.4269C83.2458 25.5245 83.5146 25.5706 83.7838 25.5652C84.0769 25.5442 84.3596 25.5727 84.632 25.6505C84.978 25.4756 85.3589 25.3803 85.7747 25.3645C86.1905 25.3486 86.6141 25.3448 87.0454 25.3528C87.4768 25.3609 87.8983 25.3669 88.3099 25.3708C88.7454 25.3591 89.1539 25.2799 89.5353 25.1331L89.6834 25.1642C90.0587 25.243 90.4365 25.2604 90.817 25.2166C91.2171 25.1768 91.5996 25.1231 91.9644 25.0553C92.3531 24.9719 92.7278 24.9062 93.0884 24.8582C93.4533 24.7904 93.8035 24.7918 94.1393 24.8623C94.6726 24.9742 95.0834 25.277 95.3716 25.7705C95.1211 25.883 94.8978 26.0629 94.7015 26.3104C94.8212 26.6242 94.8499 26.9293 94.7877 27.2256C94.7255 27.5219 94.6218 27.8197 94.4764 28.1192C94.3352 28.3989 94.2237 28.6848 94.1417 28.9769C93.5472 29.0583 93.0364 29.2811 92.6094 29.6451C92.2063 29.9935 91.758 30.3119 91.2644 30.6001L91.1587 31.1038C90.8688 31.2079 90.61 31.3598 90.3825 31.5595C90.1789 31.7436 89.905 31.8201 89.561 31.7892C89.3751 32.1832 89.1441 32.5471 88.8678 32.881C88.6154 33.1992 88.2595 33.3719 87.8 33.3992C87.7315 33.5292 87.6474 33.6353 87.5476 33.7174C87.4479 33.7996 87.3482 33.8818 87.2484 33.964C87.1528 34.0264 87.063 34.1106 86.9788 34.2167C86.9144 34.3269 86.8735 34.473 86.8559 34.6549C86.3862 34.9275 85.94 35.236 85.5171 35.5803C85.0984 35.9048 84.6875 36.2413 84.2844 36.5897C83.8813 36.9382 83.4704 37.2747 83.0517 37.5992C82.633 37.9238 82.1909 38.2125 81.7254 38.4653C81.6402 38.6743 81.514 38.8334 81.3468 38.9427C81.1795 39.0519 81.0533 39.211 80.9682 39.42C80.4985 39.6926 80.0288 39.9652 79.5591 40.2378C79.1134 40.4948 78.6635 40.7716 78.2094 41.0681C77.9943 41.2085 77.785 41.3708 77.5813 41.5549C77.3819 41.7192 77.1845 41.8737 76.9891 42.0183C76.9216 42.0454 76.8462 42.0605 76.7631 42.0636C76.6799 42.0668 76.6087 42.0622 76.5495 42.0497C76.2576 42.3597 75.9422 42.6337 75.6035 42.872C75.2689 43.0904 74.9245 43.3068 74.5702 43.5212C74.2158 43.7355 73.8693 43.9618 73.5306 44.2C73.196 44.4185 72.8828 44.6827 72.5909 44.9926C72.1222 45.1623 71.6769 45.3678 71.255 45.6092C70.8332 45.8506 70.417 46.1139 70.0066 46.3989C69.6003 46.6642 69.192 46.9394 68.7816 47.2244C68.3712 47.5094 67.955 47.7727 67.5332 48.0141C67.448 48.223 67.3276 48.404 67.1717 48.5569C67.0398 48.6941 66.9058 48.8413 66.7697 48.9983C66.6378 49.1356 66.5017 49.2927 66.3615 49.4694C66.2452 49.6306 66.1523 49.8276 66.0828 50.0605C66.1732 50.1208 66.258 50.1592 66.337 50.1758L66.6332 50.2379C67.0283 50.3209 67.4202 50.3206 67.8089 50.2373C68.2173 50.158 68.606 50.0747 68.975 49.9871C69.2951 50.0337 69.6096 50.0585 69.9183 50.0614C70.2509 50.0488 70.545 49.9249 70.8006 49.6898C70.891 49.7501 70.9659 49.7864 71.0252 49.7988L71.2325 49.8424C71.4301 49.8838 71.6219 49.9035 71.8079 49.9013C72.0179 49.8835 72.2179 49.8636 72.4082 49.8417C72.6181 49.8239 72.8161 49.8139 73.0022 49.8117C73.208 49.8137 73.4253 49.8593 73.654 49.9486C73.9876 49.833 74.3207 49.7689 74.6533 49.7562C75.0098 49.7279 75.3642 49.7095 75.7166 49.701C76.0887 49.6966 76.4432 49.6782 76.7799 49.6458C77.1167 49.6134 77.4441 49.5275 77.7621 49.388C77.8567 49.4285 77.983 49.4653 78.141 49.4985C78.3583 49.5441 78.5916 49.5621 78.8411 49.5526C79.1103 49.5473 79.3639 49.518 79.6019 49.4649C79.8753 49.4398 80.1548 49.3851 80.4406 49.3007C80.5592 49.3256 80.634 49.3619 80.6652 49.4097C80.6964 49.4575 80.7417 49.4876 80.8009 49.5001C80.8602 49.5125 80.9116 49.513 80.9553 49.5015C81.2286 49.4764 81.4822 49.4472 81.7161 49.4138C81.9541 49.3606 82.2098 49.3215 82.4831 49.2964C83.085 49.2784 83.6806 49.29 84.27 49.3312C84.8593 49.3725 85.4508 49.4038 86.0443 49.4253C86.3094 49.4397 86.5687 49.4323 86.8223 49.403C87.0957 49.3779 87.367 49.3627 87.6362 49.3573L87.7843 49.3884C87.8238 49.3967 87.8452 49.4425 87.8483 49.5256C87.8754 49.5932 87.9383 49.6373 88.0371 49.658C88.2346 49.6995 88.4581 49.7155 88.7076 49.706C88.957 49.6965 89.1945 49.6948 89.4201 49.7009C90.4252 49.7263 91.471 49.853 92.5573 50.0811C92.9524 50.164 93.3313 50.2745 93.6942 50.4125C94.0768 50.5547 94.4656 50.6672 94.8606 50.7502C94.9989 50.7792 95.1137 50.7724 95.2052 50.7297C95.3164 50.6912 95.4333 50.6745 95.556 50.6796L95.5249 50.8277C95.4875 51.0055 95.5001 51.1422 95.5625 51.2378C95.7413 51.1722 95.9216 51.1482 96.1035 51.1657C96.3052 51.1875 96.4949 51.217 96.6726 51.2543C97.1467 51.3538 97.6026 51.4907 98.0403 51.6651C98.5019 51.8239 98.9598 51.951 99.4141 52.0463C99.6906 52.1044 99.9734 52.1328 100.262 52.1316C100.273 52.2781 100.343 52.3857 100.473 52.4542C100.627 52.5071 100.745 52.5835 100.827 52.6832C100.933 53.1592 100.941 53.6145 100.85 54.049Z" fill="#DFDDDD"/>
</svg>
